<svg width="150" height="150" viewBox="0 0 150 150" fill="none" xmlns="http://www.w3.org/2000/svg">
<path d="M125.269 117.805C123.898 120.188 122.535 122.576 121.153 124.952C119.669 127.503 118.307 130.131 116.684 132.595C113.753 137.048 109.588 139.681 104.341 140.605C104.306 140.607 104.27 140.607 104.235 140.603C103.844 140.205 103.455 139.805 103.061 139.411C87.8477 124.202 72.6321 108.994 57.4144 93.7896C57.16 93.5355 57.1323 93.4061 57.4063 93.1419C59.4564 91.1643 61.3686 89.0433 63.5336 87.1858C68.6412 82.763 74.8648 79.8271 81.5261 78.698C84.4508 78.1774 87.4286 78.0205 90.3918 78.2307C98.8378 78.8496 106.281 81.9121 112.642 87.5153C120.05 94.0344 124.566 103.229 125.196 113.077C125.288 114.513 125.274 115.948 125.237 117.384C125.212 117.525 125.223 117.67 125.269 117.805V117.805ZM111.228 106.49C111.193 106.508 111.161 106.529 111.13 106.552C107.285 110.394 103.439 114.235 99.5912 118.075C99.3737 118.292 99.5088 118.381 99.6471 118.519C102.813 121.681 105.975 124.846 109.135 128.014C109.389 128.269 109.463 128.21 109.618 127.935C112.608 122.593 113.562 116.91 112.48 110.887C112.208 109.384 111.789 107.911 111.228 106.49V106.49ZM93.602 112.407C93.6639 112.35 93.7352 112.289 93.8017 112.222C98.0744 107.952 102.348 103.682 106.624 99.4142C106.818 99.221 106.796 99.1209 106.628 98.9333C105.303 97.4565 103.817 96.1331 102.197 94.988C101.956 94.8181 101.832 94.8215 101.618 95.0363C97.6892 98.9794 93.7544 102.917 89.8137 106.848C89.5619 107.099 89.317 107.359 89.0554 107.6C88.916 107.728 88.9243 107.804 89.0569 107.936C90.5055 109.375 91.9505 110.816 93.392 112.262C93.449 112.319 93.4941 112.395 93.6019 112.407H93.602ZM93.7757 91.2909C90.9828 90.5548 88.0777 90.3418 85.2072 90.6628C81.7651 91.0314 78.4366 92.1091 75.4317 93.8281C75.1757 93.9731 75.1654 94.0538 75.3773 94.2644C77.8435 96.715 80.3012 99.174 82.7507 101.641C83.021 101.914 83.1424 101.861 83.3788 101.624C86.7281 98.2607 90.0835 94.9038 93.445 91.553C93.5499 91.4592 93.6604 91.3717 93.7757 91.2909H93.7757Z" fill="#E61C34"/>
<path d="M103.983 9.82262C105.739 10.0407 107.449 10.5361 109.05 11.2901C112.653 12.9544 115.411 15.5366 117.386 18.9751C119.86 23.2826 122.343 27.5852 124.834 31.8829C124.86 31.935 124.883 31.9888 124.902 32.0438C125.006 33.5839 125.024 35.1286 124.958 36.6708C124.564 44.4452 122.039 51.4526 117.314 57.6437C112.277 64.2199 105.201 68.939 97.194 71.0613C89.187 73.1836 80.7022 72.5891 73.0694 69.3711C69.218 67.7584 65.6728 65.495 62.5891 62.6799C62.3522 62.4647 62.246 62.4894 62.035 62.7009C56.4323 68.3146 50.8272 73.9259 45.2198 79.5349C44.9609 79.7945 44.8393 79.7796 44.5919 79.529C42.6569 77.5687 40.6732 75.6555 38.7678 73.6671C36.2035 70.991 34.6841 67.7822 34.3447 64.0888C33.7753 57.8922 36.0122 52.8739 40.9007 49.0358C41.1172 48.8658 41.1338 48.7864 40.9331 48.5924C40.0027 47.6931 39.0861 46.7794 38.1696 45.8658C38.0462 45.7386 37.8917 45.6458 37.7214 45.5968C34.2826 44.5938 30.8468 43.5804 27.4038 42.5921C27.0397 42.4876 27.0144 42.3677 27.1181 42.0399C27.4542 40.9769 27.7598 39.9041 28.0618 38.8308C28.128 38.5955 28.1877 38.5064 28.4638 38.588C32.2858 39.7173 36.1104 40.8376 39.9377 41.9487C40.0948 42.0015 40.2353 42.0946 40.3452 42.2187C41.8109 43.6745 43.2764 45.1305 44.7419 46.5866C44.7961 46.6605 44.8736 46.714 44.9618 46.7386C45.0501 46.7632 45.1441 46.7575 45.2287 46.7223C51.7903 44.6306 57.5706 45.9563 62.5695 50.6993C62.8168 50.9348 62.9266 50.9016 63.1437 50.6845C75.5826 38.2391 88.025 25.7972 100.471 13.3588C101.546 12.2843 102.621 11.2109 103.698 10.1385C103.798 10.0385 103.888 9.92816 103.983 9.82262ZM87.5513 59.9555C89.654 59.9644 91.7491 59.703 93.7852 59.1775C101.133 57.207 106.568 52.8272 110.019 46.0608C112.191 41.8037 112.97 37.2477 112.506 32.4867C112.168 28.9664 111.081 25.559 109.319 22.4929C109.179 22.2474 109.108 22.2045 108.886 22.4266C97.6246 33.6954 86.3578 44.9587 75.0857 56.2167C74.8778 56.4244 74.9031 56.4873 75.1456 56.6258C78.9217 58.7937 83.1971 59.9412 87.5513 59.9555ZM42.473 62.6408C42.5025 64.4158 43.2054 66.2923 44.6351 67.8932C44.8272 68.1083 44.9369 68.161 45.1768 67.9201C48.9109 64.1688 52.6537 60.4262 56.4053 56.6923C56.6202 56.4782 56.6132 56.37 56.3922 56.175C54.5614 54.5597 52.4368 53.8162 50.0023 54.0458C45.7262 54.4489 42.4766 58.0154 42.473 62.6408Z" fill="#E61C34"/>
<path d="M22.9429 48.7448C22.8542 48.4645 22.9855 48.378 23.3166 48.3512C26.2726 48.112 29.227 47.8518 32.1818 47.5978C33.0329 47.5246 33.8841 47.4535 34.7348 47.3767C34.8643 47.3616 34.9947 47.3981 35.0975 47.4785C36.1856 48.2823 37.2763 49.0827 38.3696 49.8794C38.5319 49.9972 38.5438 50.0748 38.4218 50.2377C37.7036 51.1973 36.99 52.1606 36.294 53.1364C36.143 53.3481 36.0498 53.3068 35.8824 53.1805C35.2571 52.7088 34.6209 52.2517 33.9937 51.7826C33.9265 51.7258 33.8487 51.6829 33.7648 51.6563C33.6809 51.6297 33.5926 51.6199 33.505 51.6274C31.4015 51.8126 29.2976 51.9936 27.1934 52.1703C25.976 52.2745 24.7582 52.3756 23.5415 52.4872C23.3331 52.5064 23.2502 52.464 23.2333 52.2343C23.1485 51.0866 23.0444 49.9404 22.9429 48.7448Z" fill="#E61C34"/>
<path d="M75 8.60222C90.3179 8.61323 105.161 13.9186 117.016 23.6197C128.87 33.3208 137.007 46.8212 140.048 61.8343C143.089 76.8473 140.847 92.45 133.702 106C126.557 119.549 114.949 130.212 100.842 136.184C84.6182 143.023 66.3424 143.14 50.0319 136.509C33.7214 129.879 20.711 117.043 13.8604 100.824C7.00981 84.6046 6.87958 66.3289 13.4984 50.0136C20.1171 33.6984 32.9433 20.6788 49.1576 13.8165C57.3332 10.3575 66.1228 8.58399 75 8.60222M75 6.2145e-05C33.5787 6.2145e-05 0 33.5787 0 75.0001C0 116.421 33.5786 150 75 150C116.421 150 150 116.421 150 75C150 33.5787 116.421 0 75 0V6.2145e-05Z" fill="#E61C34"/>
</svg>
