<svg width="142" height="125" viewBox="0 0 142 125" fill="none" xmlns="http://www.w3.org/2000/svg">
<path d="M72.2072 61.8148L36.4811 0.306057C36.4272 0.212788 36.3497 0.135381 36.2564 0.0816457C36.163 0.0279102 36.0571 -0.000251485 35.9494 1.69211e-06C35.8417 0.000254869 35.736 0.028914 35.6429 0.0830877C35.5498 0.137261 35.4726 0.215033 35.4192 0.308554L0.0830889 61.8173C0.0286573 61.9115 0 62.0184 0 62.1272C0 62.236 0.0286573 62.3429 0.0830889 62.4372L35.8094 123.946C35.8633 124.039 35.9408 124.117 36.0342 124.17C36.1276 124.224 36.2335 124.252 36.3412 124.252C36.449 124.252 36.5548 124.223 36.6479 124.169C36.741 124.115 36.8182 124.037 36.8716 123.943L72.2085 62.4347C72.2626 62.3403 72.291 62.2333 72.2907 62.1245C72.2905 62.0158 72.2617 61.9089 72.2072 61.8148ZM83.0452 54.6835C83.098 54.7768 83.1746 54.8544 83.2672 54.9085C83.3597 54.9627 83.4649 54.9913 83.5722 54.9916H102.018C102.126 54.9903 102.231 54.9608 102.324 54.9061C102.417 54.8513 102.494 54.7732 102.547 54.6795C102.601 54.5857 102.628 54.4797 102.628 54.3719C102.628 54.2641 102.599 54.1583 102.545 54.065L71.8638 0.309109C71.811 0.215753 71.7345 0.138052 71.6419 0.0839235C71.5493 0.0297955 71.4441 0.00117573 71.3369 0.000979797H52.8913C52.7835 0.00226441 52.6779 0.0317545 52.585 0.0865156C52.4922 0.141277 52.4153 0.219399 52.362 0.313111C52.3087 0.406823 52.2809 0.512857 52.2813 0.620661C52.2817 0.728466 52.3103 0.834283 52.3643 0.927585L83.0452 54.6835ZM141.917 61.817L106.749 0.309386C106.696 0.215817 106.619 0.138001 106.526 0.0838357C106.433 0.0296702 106.327 0.00108425 106.22 0.000979797H87.7487C87.6408 0.00200439 87.535 0.0312908 87.442 0.0859199C87.3489 0.140549 87.2718 0.218613 87.2183 0.31233C87.1648 0.406048 87.1369 0.512146 87.1372 0.620049C87.1375 0.727952 87.166 0.833892 87.2201 0.927308L122.212 62.126L87.2192 123.325C87.1652 123.418 87.1366 123.524 87.1363 123.632C87.136 123.74 87.164 123.846 87.2175 123.94C87.271 124.033 87.3481 124.111 87.4411 124.166C87.5342 124.221 87.6399 124.25 87.7478 124.251H106.219C106.326 124.251 106.432 124.222 106.525 124.168C106.618 124.114 106.694 124.036 106.748 123.943L141.917 62.4349C141.971 62.3409 141.999 62.2344 141.999 62.126C141.999 62.0176 141.971 61.9111 141.917 61.817ZM101.512 70.1459H83.0666C82.9593 70.1461 82.8541 70.1747 82.7615 70.2289C82.6689 70.283 82.5924 70.3607 82.5396 70.4541L52.3646 123.324C52.3106 123.418 52.282 123.523 52.2816 123.631C52.2811 123.739 52.309 123.845 52.3623 123.939C52.4156 124.033 52.4925 124.111 52.5853 124.165C52.6782 124.22 52.7838 124.25 52.8916 124.251H71.3374C71.4446 124.251 71.5499 124.222 71.6425 124.168C71.735 124.114 71.8116 124.036 71.8644 123.943L102.039 71.0725C102.093 70.9792 102.122 70.8734 102.122 70.7655C102.123 70.6577 102.095 70.5517 102.042 70.4579C101.988 70.3642 101.911 70.2861 101.818 70.2314C101.726 70.1766 101.62 70.1472 101.512 70.1459Z" fill="#E31337"/>
</svg>
